<mxfile host="app.diagrams.net" agent="Mozilla/5.0 (Windows NT 10.0; Win64; x64) AppleWebKit/537.36 (KHTML, like Gecko) Chrome/131.0.0.0 Safari/537.36" version="26.0.2">
  <diagram name="Page-1" id="74e2e168-ea6b-b213-b513-2b3c1d86103e">
    <mxGraphModel dx="1909" dy="949" grid="1" gridSize="10" guides="1" tooltips="1" connect="1" arrows="1" fold="1" page="1" pageScale="1" pageWidth="1100" pageHeight="850" background="none" math="0" shadow="0">
      <root>
        <mxCell id="0" />
        <mxCell id="1" parent="0" />
        <mxCell id="77e6c97f196da883-1" value="&#xa;Receive User Input&#xa;&#xa;" style="swimlane;html=1;childLayout=stackLayout;startSize=20;rounded=0;shadow=0;labelBackgroundColor=none;strokeWidth=1;fontFamily=Verdana;fontSize=17;align=center;fontStyle=0" parent="1" vertex="1">
          <mxGeometry x="40" y="90" width="1440" height="720" as="geometry" />
        </mxCell>
        <mxCell id="77e6c97f196da883-2" value="Lane 1" style="swimlane;html=1;startSize=20;" parent="77e6c97f196da883-1" vertex="1">
          <mxGeometry y="20" width="160" height="700" as="geometry" />
        </mxCell>
        <mxCell id="77e6c97f196da883-9" value="&#xa;Preprocessing&#xa;&#xa;" style="rounded=1;whiteSpace=wrap;html=1;shadow=0;labelBackgroundColor=none;strokeWidth=1;fontFamily=Verdana;fontSize=12;align=center;fontStyle=1" parent="77e6c97f196da883-2" vertex="1">
          <mxGeometry x="20" y="155" width="100" height="60" as="geometry" />
        </mxCell>
        <mxCell id="YKWu4KCkNnrhPUUKNhsR-1" value="start" style="rounded=0;whiteSpace=wrap;html=1;fontSize=21;" vertex="1" parent="77e6c97f196da883-2">
          <mxGeometry x="30" y="60" width="90" height="60" as="geometry" />
        </mxCell>
        <mxCell id="77e6c97f196da883-26" style="edgeStyle=orthogonalEdgeStyle;rounded=1;html=1;labelBackgroundColor=none;startArrow=none;startFill=0;startSize=5;endArrow=classicThin;endFill=1;endSize=5;jettySize=auto;orthogonalLoop=1;strokeWidth=1;fontFamily=Verdana;fontSize=8" parent="77e6c97f196da883-1" edge="1">
          <mxGeometry relative="1" as="geometry">
            <mxPoint x="110" y="115" as="sourcePoint" />
            <mxPoint x="190" y="115" as="targetPoint" />
          </mxGeometry>
        </mxCell>
        <mxCell id="77e6c97f196da883-27" style="edgeStyle=orthogonalEdgeStyle;rounded=1;html=1;labelBackgroundColor=none;startArrow=none;startFill=0;startSize=5;endArrow=classicThin;endFill=1;endSize=5;jettySize=auto;orthogonalLoop=1;strokeWidth=1;fontFamily=Verdana;fontSize=8" parent="77e6c97f196da883-1" target="77e6c97f196da883-9" edge="1">
          <mxGeometry relative="1" as="geometry">
            <Array as="points">
              <mxPoint x="240" y="155" />
              <mxPoint x="70" y="155" />
            </Array>
            <mxPoint x="240" y="145" as="sourcePoint" />
          </mxGeometry>
        </mxCell>
        <mxCell id="77e6c97f196da883-28" style="edgeStyle=orthogonalEdgeStyle;rounded=1;html=1;labelBackgroundColor=none;startArrow=none;startFill=0;startSize=5;endArrow=classicThin;endFill=1;endSize=5;jettySize=auto;orthogonalLoop=1;strokeWidth=1;fontFamily=Verdana;fontSize=8" parent="77e6c97f196da883-1" source="77e6c97f196da883-9" target="77e6c97f196da883-12" edge="1">
          <mxGeometry relative="1" as="geometry" />
        </mxCell>
        <mxCell id="77e6c97f196da883-3" value="Lane 2" style="swimlane;html=1;startSize=20;" parent="77e6c97f196da883-1" vertex="1">
          <mxGeometry x="160" y="20" width="540" height="700" as="geometry" />
        </mxCell>
        <mxCell id="YKWu4KCkNnrhPUUKNhsR-13" value="Receive User Input &quot;She go to the market.&quot;" style="rounded=1;whiteSpace=wrap;html=1;fontSize=14;fontStyle=0" vertex="1" parent="77e6c97f196da883-3">
          <mxGeometry x="30" y="60" width="290" height="60" as="geometry" />
        </mxCell>
        <mxCell id="YKWu4KCkNnrhPUUKNhsR-59" value="&#xa;&lt;strong&gt;Embedding&lt;/strong&gt;: Convert tokens into numerical representations.&#xa;&#xa;" style="rounded=1;whiteSpace=wrap;html=1;" vertex="1" parent="77e6c97f196da883-3">
          <mxGeometry x="240" y="155" width="150" height="60" as="geometry" />
        </mxCell>
        <mxCell id="77e6c97f196da883-12" value="&#xa;&lt;strong&gt;Tokenization&lt;/strong&gt;: Split the sentence into tokens.&#xa;&#xa;" style="rounded=1;whiteSpace=wrap;html=1;shadow=0;labelBackgroundColor=none;strokeWidth=1;fontFamily=Verdana;fontSize=12;align=center;" parent="77e6c97f196da883-3" vertex="1">
          <mxGeometry x="40" y="155" width="160" height="60" as="geometry" />
        </mxCell>
        <mxCell id="YKWu4KCkNnrhPUUKNhsR-60" style="edgeStyle=orthogonalEdgeStyle;rounded=0;orthogonalLoop=1;jettySize=auto;html=1;exitX=1;exitY=0.5;exitDx=0;exitDy=0;entryX=0;entryY=0.5;entryDx=0;entryDy=0;" edge="1" parent="77e6c97f196da883-3" source="77e6c97f196da883-12" target="YKWu4KCkNnrhPUUKNhsR-59">
          <mxGeometry relative="1" as="geometry" />
        </mxCell>
        <mxCell id="YKWu4KCkNnrhPUUKNhsR-94" value="" style="edgeStyle=orthogonalEdgeStyle;rounded=0;orthogonalLoop=1;jettySize=auto;html=1;" edge="1" parent="77e6c97f196da883-3" source="YKWu4KCkNnrhPUUKNhsR-80" target="YKWu4KCkNnrhPUUKNhsR-88">
          <mxGeometry relative="1" as="geometry" />
        </mxCell>
        <mxCell id="YKWu4KCkNnrhPUUKNhsR-80" value="&#xa;Decision Point&#xa;&#xa;" style="rhombus;whiteSpace=wrap;html=1;fontSize=14;fontStyle=1" vertex="1" parent="77e6c97f196da883-3">
          <mxGeometry x="240" y="270" width="160" height="80" as="geometry" />
        </mxCell>
        <mxCell id="YKWu4KCkNnrhPUUKNhsR-82" value="" style="endArrow=classic;html=1;rounded=0;" edge="1" parent="77e6c97f196da883-3">
          <mxGeometry width="50" height="50" relative="1" as="geometry">
            <mxPoint x="320" y="216" as="sourcePoint" />
            <mxPoint x="320" y="270" as="targetPoint" />
            <Array as="points">
              <mxPoint x="320" y="250" />
              <mxPoint x="320" y="260" />
            </Array>
          </mxGeometry>
        </mxCell>
        <mxCell id="YKWu4KCkNnrhPUUKNhsR-88" value="&#xa;No → Move to Encoding&#xa;&#xa;" style="rounded=1;whiteSpace=wrap;html=1;fontSize=14;fontStyle=1;" vertex="1" parent="77e6c97f196da883-3">
          <mxGeometry x="260" y="380" width="120" height="60" as="geometry" />
        </mxCell>
        <mxCell id="YKWu4KCkNnrhPUUKNhsR-112" value="&#xa;No → &lt;strong&gt;Adjust Decoding Parameters&lt;/strong&gt;&#xa;&#xa;" style="whiteSpace=wrap;html=1;rounded=0;fontStyle=1;" vertex="1" parent="77e6c97f196da883-3">
          <mxGeometry x="-17.5" y="550" width="120" height="60" as="geometry" />
        </mxCell>
        <mxCell id="YKWu4KCkNnrhPUUKNhsR-117" value="" style="edgeStyle=orthogonalEdgeStyle;rounded=0;orthogonalLoop=1;jettySize=auto;html=1;" edge="1" parent="77e6c97f196da883-3" source="YKWu4KCkNnrhPUUKNhsR-114" target="YKWu4KCkNnrhPUUKNhsR-116">
          <mxGeometry relative="1" as="geometry" />
        </mxCell>
        <mxCell id="YKWu4KCkNnrhPUUKNhsR-114" value="&#xa;Yes → Move to Post-processing&#xa;&#xa;" style="whiteSpace=wrap;html=1;rounded=0;fontStyle=1;" vertex="1" parent="77e6c97f196da883-3">
          <mxGeometry x="217.5" y="710" width="120" height="60" as="geometry" />
        </mxCell>
        <mxCell id="YKWu4KCkNnrhPUUKNhsR-116" value="&#xa;Post-processing&#xa;&#xa;" style="whiteSpace=wrap;html=1;rounded=0;fontStyle=1;" vertex="1" parent="77e6c97f196da883-3">
          <mxGeometry x="417.5" y="710" width="120" height="60" as="geometry" />
        </mxCell>
        <mxCell id="77e6c97f196da883-5" value="Lane 4" style="swimlane;html=1;startSize=20;" parent="77e6c97f196da883-1" vertex="1">
          <mxGeometry x="700" y="20" width="210" height="700" as="geometry" />
        </mxCell>
        <mxCell id="YKWu4KCkNnrhPUUKNhsR-73" value="&#xa;Yes → &lt;strong&gt;Handle Special Characters/Punctuation&lt;/strong&gt;&#xa;&#xa;" style="rounded=1;whiteSpace=wrap;html=1;fontSize=11;" vertex="1" parent="77e6c97f196da883-5">
          <mxGeometry x="50" y="270" width="130" height="70" as="geometry" />
        </mxCell>
        <mxCell id="77e6c97f196da883-18" value="&#xa;Encoding&#xa;&#xa;" style="rounded=1;whiteSpace=wrap;html=1;shadow=0;labelBackgroundColor=none;strokeWidth=1;fontFamily=Verdana;fontSize=13;align=center;fontStyle=1" parent="77e6c97f196da883-5" vertex="1">
          <mxGeometry x="50" y="450" width="120" height="60" as="geometry" />
        </mxCell>
        <mxCell id="YKWu4KCkNnrhPUUKNhsR-98" value="" style="endArrow=classic;html=1;rounded=0;entryX=0.5;entryY=0;entryDx=0;entryDy=0;exitX=0.357;exitY=1.023;exitDx=0;exitDy=0;exitPerimeter=0;" edge="1" parent="77e6c97f196da883-5" source="YKWu4KCkNnrhPUUKNhsR-73" target="77e6c97f196da883-18">
          <mxGeometry width="50" height="50" relative="1" as="geometry">
            <mxPoint x="60" y="430" as="sourcePoint" />
            <mxPoint x="130" y="420" as="targetPoint" />
            <Array as="points">
              <mxPoint x="110" y="340" />
              <mxPoint x="110" y="350" />
            </Array>
          </mxGeometry>
        </mxCell>
        <mxCell id="YKWu4KCkNnrhPUUKNhsR-111" value="" style="edgeStyle=orthogonalEdgeStyle;rounded=0;orthogonalLoop=1;jettySize=auto;html=1;" edge="1" parent="77e6c97f196da883-5" source="YKWu4KCkNnrhPUUKNhsR-109" target="YKWu4KCkNnrhPUUKNhsR-110">
          <mxGeometry relative="1" as="geometry" />
        </mxCell>
        <mxCell id="YKWu4KCkNnrhPUUKNhsR-109" value="&#xa;&lt;strong&gt;Decoder&lt;/strong&gt;: Generate corrected sentence tokens.&#xa;&#xa;" style="rounded=0;whiteSpace=wrap;html=1;" vertex="1" parent="77e6c97f196da883-5">
          <mxGeometry x="45" y="550" width="120" height="60" as="geometry" />
        </mxCell>
        <mxCell id="YKWu4KCkNnrhPUUKNhsR-110" value="&#xa;Decision Point&#xa;&#xa;" style="rhombus;whiteSpace=wrap;html=1;rounded=0;fontStyle=1" vertex="1" parent="77e6c97f196da883-5">
          <mxGeometry x="-210" y="540" width="155" height="80" as="geometry" />
        </mxCell>
        <mxCell id="YKWu4KCkNnrhPUUKNhsR-118" value="&#xa;Detokenization&#xa;&#xa;" style="whiteSpace=wrap;html=1;rounded=0;fontStyle=1;fontSize=13;" vertex="1" parent="77e6c97f196da883-5">
          <mxGeometry x="80" y="710" width="120" height="60" as="geometry" />
        </mxCell>
        <mxCell id="77e6c97f196da883-6" value="Lane 5" style="swimlane;html=1;startSize=20;fontStyle=0;fontSize=10;" parent="77e6c97f196da883-1" vertex="1">
          <mxGeometry x="910" y="20" width="370" height="700" as="geometry" />
        </mxCell>
        <mxCell id="YKWu4KCkNnrhPUUKNhsR-104" value="" style="edgeStyle=orthogonalEdgeStyle;rounded=0;orthogonalLoop=1;jettySize=auto;html=1;" edge="1" parent="77e6c97f196da883-6" source="YKWu4KCkNnrhPUUKNhsR-76" target="YKWu4KCkNnrhPUUKNhsR-103">
          <mxGeometry relative="1" as="geometry" />
        </mxCell>
        <mxCell id="YKWu4KCkNnrhPUUKNhsR-106" value="" style="edgeStyle=orthogonalEdgeStyle;rounded=0;orthogonalLoop=1;jettySize=auto;html=1;" edge="1" parent="77e6c97f196da883-6" source="YKWu4KCkNnrhPUUKNhsR-76">
          <mxGeometry relative="1" as="geometry">
            <mxPoint x="85" y="550" as="targetPoint" />
            <Array as="points">
              <mxPoint x="85" y="530" />
              <mxPoint x="85" y="530" />
            </Array>
          </mxGeometry>
        </mxCell>
        <mxCell id="YKWu4KCkNnrhPUUKNhsR-76" value="&#xa;Decision Point&#xa;&#xa;" style="rhombus;whiteSpace=wrap;html=1;fontStyle=1" vertex="1" parent="77e6c97f196da883-6">
          <mxGeometry x="30" y="440" width="110" height="80" as="geometry" />
        </mxCell>
        <mxCell id="YKWu4KCkNnrhPUUKNhsR-103" value="&#xa;Yes → &lt;strong&gt;Truncate Sentence&lt;/strong&gt;&#xa;&#xa;" style="whiteSpace=wrap;html=1;fontStyle=1;" vertex="1" parent="77e6c97f196da883-6">
          <mxGeometry x="215" y="450" width="120" height="60" as="geometry" />
        </mxCell>
        <mxCell id="YKWu4KCkNnrhPUUKNhsR-105" value="&#xa;No → Move to Decoding&#xa;&#xa;" style="whiteSpace=wrap;html=1;fontStyle=1;" vertex="1" parent="77e6c97f196da883-6">
          <mxGeometry x="30" y="550" width="120" height="60" as="geometry" />
        </mxCell>
        <mxCell id="YKWu4KCkNnrhPUUKNhsR-129" value="" style="edgeStyle=orthogonalEdgeStyle;rounded=0;orthogonalLoop=1;jettySize=auto;html=1;" edge="1" parent="77e6c97f196da883-6" source="YKWu4KCkNnrhPUUKNhsR-120" target="YKWu4KCkNnrhPUUKNhsR-128">
          <mxGeometry relative="1" as="geometry" />
        </mxCell>
        <mxCell id="YKWu4KCkNnrhPUUKNhsR-120" value="&#xa;Decision Point&#xa;&#xa;" style="rhombus;whiteSpace=wrap;html=1;fontSize=12;rounded=0;fontStyle=1;" vertex="1" parent="77e6c97f196da883-6">
          <mxGeometry x="50" y="700" width="120" height="80" as="geometry" />
        </mxCell>
        <mxCell id="YKWu4KCkNnrhPUUKNhsR-124" value="Yes → &lt;strong&gt;Collect User Feedback&lt;/strong&gt;" style="rounded=1;whiteSpace=wrap;html=1;" vertex="1" parent="77e6c97f196da883-6">
          <mxGeometry x="192.5" y="610" width="120" height="60" as="geometry" />
        </mxCell>
        <mxCell id="YKWu4KCkNnrhPUUKNhsR-125" value="" style="endArrow=classic;html=1;rounded=0;" edge="1" parent="77e6c97f196da883-6">
          <mxGeometry width="50" height="50" relative="1" as="geometry">
            <mxPoint x="102.5" y="700" as="sourcePoint" />
            <mxPoint x="112.5" y="660" as="targetPoint" />
            <Array as="points">
              <mxPoint x="112.5" y="700" />
            </Array>
          </mxGeometry>
        </mxCell>
        <mxCell id="YKWu4KCkNnrhPUUKNhsR-127" value="" style="endArrow=classic;html=1;rounded=0;entryX=0;entryY=0.833;entryDx=0;entryDy=0;entryPerimeter=0;" edge="1" parent="77e6c97f196da883-6" target="YKWu4KCkNnrhPUUKNhsR-124">
          <mxGeometry width="50" height="50" relative="1" as="geometry">
            <mxPoint x="112.5" y="660" as="sourcePoint" />
            <mxPoint x="162.5" y="610" as="targetPoint" />
          </mxGeometry>
        </mxCell>
        <mxCell id="YKWu4KCkNnrhPUUKNhsR-128" value="No → Move to Output" style="whiteSpace=wrap;html=1;rounded=0;fontStyle=1;" vertex="1" parent="77e6c97f196da883-6">
          <mxGeometry x="250" y="710" width="80" height="60" as="geometry" />
        </mxCell>
        <mxCell id="77e6c97f196da883-7" value="Lane 6" style="swimlane;html=1;startSize=20;" parent="77e6c97f196da883-1" vertex="1">
          <mxGeometry x="1280" y="20" width="160" height="700" as="geometry" />
        </mxCell>
        <mxCell id="YKWu4KCkNnrhPUUKNhsR-130" value="Output:&quot;She goes to the market.&quot;" style="whiteSpace=wrap;html=1;rounded=0;fontStyle=1;" vertex="1" parent="77e6c97f196da883-7">
          <mxGeometry x="20" y="710" width="120" height="60" as="geometry" />
        </mxCell>
        <mxCell id="YKWu4KCkNnrhPUUKNhsR-93" value="" style="edgeStyle=orthogonalEdgeStyle;rounded=0;orthogonalLoop=1;jettySize=auto;html=1;" edge="1" parent="77e6c97f196da883-1" source="YKWu4KCkNnrhPUUKNhsR-80" target="YKWu4KCkNnrhPUUKNhsR-73">
          <mxGeometry relative="1" as="geometry">
            <Array as="points">
              <mxPoint x="620" y="330" />
              <mxPoint x="620" y="330" />
            </Array>
          </mxGeometry>
        </mxCell>
        <mxCell id="YKWu4KCkNnrhPUUKNhsR-102" value="" style="edgeStyle=orthogonalEdgeStyle;rounded=0;orthogonalLoop=1;jettySize=auto;html=1;" edge="1" parent="77e6c97f196da883-1" source="77e6c97f196da883-18" target="YKWu4KCkNnrhPUUKNhsR-76">
          <mxGeometry relative="1" as="geometry" />
        </mxCell>
        <mxCell id="YKWu4KCkNnrhPUUKNhsR-113" value="" style="edgeStyle=orthogonalEdgeStyle;rounded=0;orthogonalLoop=1;jettySize=auto;html=1;" edge="1" parent="77e6c97f196da883-1" source="YKWu4KCkNnrhPUUKNhsR-110" target="YKWu4KCkNnrhPUUKNhsR-112">
          <mxGeometry relative="1" as="geometry" />
        </mxCell>
        <mxCell id="YKWu4KCkNnrhPUUKNhsR-115" value="" style="edgeStyle=orthogonalEdgeStyle;rounded=0;orthogonalLoop=1;jettySize=auto;html=1;" edge="1" parent="77e6c97f196da883-1" source="YKWu4KCkNnrhPUUKNhsR-110" target="YKWu4KCkNnrhPUUKNhsR-114">
          <mxGeometry relative="1" as="geometry" />
        </mxCell>
        <mxCell id="YKWu4KCkNnrhPUUKNhsR-119" value="" style="edgeStyle=orthogonalEdgeStyle;rounded=0;orthogonalLoop=1;jettySize=auto;html=1;" edge="1" parent="77e6c97f196da883-1" source="YKWu4KCkNnrhPUUKNhsR-116" target="YKWu4KCkNnrhPUUKNhsR-118">
          <mxGeometry relative="1" as="geometry" />
        </mxCell>
        <mxCell id="YKWu4KCkNnrhPUUKNhsR-121" value="" style="edgeStyle=orthogonalEdgeStyle;rounded=0;orthogonalLoop=1;jettySize=auto;html=1;" edge="1" parent="77e6c97f196da883-1" source="YKWu4KCkNnrhPUUKNhsR-118">
          <mxGeometry relative="1" as="geometry">
            <mxPoint x="960" y="760" as="targetPoint" />
          </mxGeometry>
        </mxCell>
        <mxCell id="YKWu4KCkNnrhPUUKNhsR-131" value="" style="edgeStyle=orthogonalEdgeStyle;rounded=0;orthogonalLoop=1;jettySize=auto;html=1;" edge="1" parent="77e6c97f196da883-1" source="YKWu4KCkNnrhPUUKNhsR-128" target="YKWu4KCkNnrhPUUKNhsR-130">
          <mxGeometry relative="1" as="geometry" />
        </mxCell>
        <mxCell id="YKWu4KCkNnrhPUUKNhsR-132" value="" style="edgeStyle=orthogonalEdgeStyle;rounded=0;orthogonalLoop=1;jettySize=auto;html=1;" edge="1" parent="77e6c97f196da883-1" source="YKWu4KCkNnrhPUUKNhsR-105" target="YKWu4KCkNnrhPUUKNhsR-109">
          <mxGeometry relative="1" as="geometry" />
        </mxCell>
        <mxCell id="YKWu4KCkNnrhPUUKNhsR-95" value="" style="endArrow=classic;html=1;rounded=0;entryX=-0.013;entryY=0.62;entryDx=0;entryDy=0;entryPerimeter=0;" edge="1" parent="1" target="77e6c97f196da883-18">
          <mxGeometry width="50" height="50" relative="1" as="geometry">
            <mxPoint x="530" y="597" as="sourcePoint" />
            <mxPoint x="580" y="610" as="targetPoint" />
            <Array as="points">
              <mxPoint x="520" y="597" />
            </Array>
          </mxGeometry>
        </mxCell>
        <mxCell id="YKWu4KCkNnrhPUUKNhsR-96" value="" style="endArrow=classic;html=1;rounded=0;" edge="1" parent="1" source="YKWu4KCkNnrhPUUKNhsR-88">
          <mxGeometry width="50" height="50" relative="1" as="geometry">
            <mxPoint x="530" y="660" as="sourcePoint" />
            <mxPoint x="520" y="600" as="targetPoint" />
          </mxGeometry>
        </mxCell>
      </root>
    </mxGraphModel>
  </diagram>
</mxfile>
